<svg width="3072" height="2048" xmlns="http://www.w3.org/2000/svg" xmlns:xlink="http://www.w3.org/1999/xlink" version="1.1" baseProfile="full" viewBox="0 0 3072 2048">
<rect width="3072" height="2048" x="0" y="0" id="0" fill="none" fill-opacity="1"></rect>
<path d="M845.5 412.9L987.8 450.9" transform="matrix(1.6,0,0,1.6,0,0)" fill="none" stroke="#aaa" stroke-width="0.6249999999999999" stroke-opacity="0.9"></path>
<path d="M0 0L10 15L0 11.25L-10 15L0 0Z" transform="matrix(-0.258,0.966,-0.966,-0.258,1580.4234,721.4939)" fill="#aaa" fill-opacity="0.9"></path>
<path d="M845.5 412.9L924 375.7" transform="matrix(1.6,0,0,1.6,0,0)" fill="none" stroke="#aaa" stroke-width="0.6249999999999999" stroke-opacity="0.9" stroke-dasharray="2.4999999999999996,1.2499999999999998"></path>
<path d="M0 0L10 15L0 11.3L-10 15L0 0Z" transform="matrix(0.428,0.904,-0.904,0.428,1478.3624,601.1439)" fill="#aaa" fill-opacity="0.9"></path>
<path d="M845.5 412.9Q876.1 373.8 921 364.6" transform="matrix(1.6,0,0,1.6,0,0)" fill="none" stroke="#aaa" stroke-width="0.6249999999999999" stroke-opacity="0.9" stroke-dasharray="2.4999999999999996,1.2499999999999998"></path>
<path d="M0 0L10 15L0 11.3L-10 15L0 0Z" transform="matrix(0.201,0.98,-0.98,0.201,1473.5409,583.3462)" fill="#aaa" fill-opacity="0.9"></path>
<path d="M845.5 412.9L745.8 434.4" transform="matrix(1.6,0,0,1.6,0,0)" fill="none" stroke="#aaa" stroke-width="0.6249999999999999" stroke-opacity="0.9" stroke-dasharray="2.4999999999999996,1.2499999999999998"></path>
<path d="M0 0L10 15L0 11.25L-10 15L0 0Z" transform="matrix(-0.21,-0.978,0.978,-0.21,1193.2193,695.023)" fill="#aaa" fill-opacity="0.9"></path>
<path d="M845.5 412.9Q800 449.4 746.1 446.3" transform="matrix(1.6,0,0,1.6,0,0)" fill="none" stroke="#aaa" stroke-width="0.6249999999999999" stroke-opacity="0.9" stroke-dasharray="2.4999999999999996,1.2499999999999998"></path>
<path d="M0 0L10 15L0 11.3L-10 15L0 0Z" transform="matrix(0.056,-0.998,0.998,0.056,1193.7389,714.1244)" fill="#aaa" fill-opacity="0.9"></path>
<path d="M845.5 412.9L847.5 503.7" transform="matrix(1.6,0,0,1.6,0,0)" fill="none" stroke="#aaa" stroke-width="0.6249999999999999" stroke-opacity="0.9" stroke-dasharray="2.4999999999999996,1.2499999999999998"></path>
<path d="M0 0L10 15L0 11.25L-10 15L0 0Z" transform="matrix(-1,0.022,-0.022,-1,1356.0403,805.8563)" fill="#aaa" fill-opacity="0.9"></path>
<path d="M845.5 412.9Q869.7 458.8 859 505.5" transform="matrix(1.6,0,0,1.6,0,0)" fill="none" stroke="#aaa" stroke-width="0.6249999999999999" stroke-opacity="0.9"></path>
<path d="M0 0L10 15L0 11.25L-10 15L0 0Z" transform="matrix(-0.975,-0.224,0.224,-0.975,1374.4375,808.7858)" fill="#aaa" fill-opacity="0.9"></path>
<path d="M845.5 412.9Q895.5 460.7 867.9 510.3" transform="matrix(1.6,0,0,1.6,0,0)" fill="none" stroke="#aaa" stroke-width="0.6249999999999999" stroke-opacity="0.9"></path>
<path d="M0 0L10 15L0 11.25L-10 15L0 0Z" transform="matrix(-0.873,-0.487,0.487,-0.873,1388.6035,816.4012)" fill="#aaa" fill-opacity="0.9"></path>
<path d="M845.5 412.9L798.2 284.6" transform="matrix(1.6,0,0,1.6,0,0)" fill="none" stroke="#aaa" stroke-width="0.6249999999999999" stroke-opacity="0.9" stroke-dasharray="2.4999999999999996,1.2499999999999998"></path>
<path d="M0 0L10 15L0 11.3L-10 15L0 0Z" transform="matrix(0.938,-0.346,0.346,0.938,1277.1227,455.3332)" fill="#aaa" fill-opacity="0.9"></path>
<path d="M845.5 412.9L906.6 281.5" transform="matrix(1.6,0,0,1.6,0,0)" fill="none" stroke="#aaa" stroke-width="0.6249999999999999" stroke-opacity="0.9" stroke-dasharray="2.4999999999999996,1.2499999999999998"></path>
<path d="M0 0L10 15L0 11.3L-10 15L0 0Z" transform="matrix(0.907,0.421,-0.421,0.907,1450.51,450.4008)" fill="#aaa" fill-opacity="0.9"></path>
<path d="M731.4 628.7L627.3 701.5" transform="matrix(1.6,0,0,1.6,0,0)" fill="none" stroke="#aaa" stroke-width="0.6249999999999999" stroke-opacity="0.9"></path>
<path d="M0 0L10 15L0 11.25L-10 15L0 0Z" transform="matrix(-0.573,-0.819,0.819,-0.573,1003.6859,1122.4265)" fill="#aaa" fill-opacity="0.9"></path>
<path d="M731.4 628.7L735.7 756.8" transform="matrix(1.6,0,0,1.6,0,0)" fill="none" stroke="#aaa" stroke-width="0.6249999999999999" stroke-opacity="0.9"></path>
<path d="M0 0L10 15L0 11.25L-10 15L0 0Z" transform="matrix(-0.999,0.034,-0.034,-0.999,1177.1302,1210.8987)" fill="#aaa" fill-opacity="0.9"></path>
<path d="M731.4 628.7L717 473.6" transform="matrix(1.6,0,0,1.6,0,0)" fill="none" stroke="#aaa" stroke-width="0.6249999999999999" stroke-opacity="0.9"></path>
<path d="M0 0L10 15L0 11.3L-10 15L0 0Z" transform="matrix(0.996,-0.093,0.093,0.996,1147.1947,757.7403)" fill="#aaa" fill-opacity="0.9"></path>
<path d="M731.4 628.7L822.8 556.3" transform="matrix(1.6,0,0,1.6,0,0)" fill="none" stroke="#aaa" stroke-width="0.6249999999999999" stroke-opacity="0.9" stroke-dasharray="2.4999999999999996,1.2499999999999998"></path>
<path d="M0 0L10 15L0 11.3L-10 15L0 0Z" transform="matrix(0.621,0.784,-0.784,0.621,1316.4281,890.1253)" fill="#aaa" fill-opacity="0.9"></path>
<path d="M731.4 628.7L832.8 660" transform="matrix(1.6,0,0,1.6,0,0)" fill="none" stroke="#aaa" stroke-width="0.6249999999999999" stroke-opacity="0.9"></path>
<path d="M0 0L10 15L0 11.25L-10 15L0 0Z" transform="matrix(-0.295,0.955,-0.955,-0.295,1332.5576,1056.0459)" fill="#aaa" fill-opacity="0.9"></path>
<path d="M686.3 506.7L817.5 429.4" transform="matrix(1.6,0,0,1.6,0,0)" fill="none" stroke="#aaa" stroke-width="0.6249999999999999" stroke-opacity="0.9" stroke-dasharray="2.4999999999999996,1.2499999999999998"></path>
<path d="M0 0L10 15L0 11.3L-10 15L0 0Z" transform="matrix(0.507,0.862,-0.862,0.507,1308.0063,687.0575)" fill="#aaa" fill-opacity="0.9"></path>
<path d="M686.3 506.7L612.8 436.7" transform="matrix(1.6,0,0,1.6,0,0)" fill="none" stroke="#aaa" stroke-width="0.6249999999999999" stroke-opacity="0.9" stroke-dasharray="2.4999999999999996,1.2499999999999998"></path>
<path d="M0 0L10 15L0 11.3L-10 15L0 0Z" transform="matrix(0.689,-0.725,0.725,0.689,980.4328,698.7782)" fill="#aaa" fill-opacity="0.9"></path>
<path d="M686.3 506.7L720.1 598.2" transform="matrix(1.6,0,0,1.6,0,0)" fill="none" stroke="#aaa" stroke-width="0.6249999999999999" stroke-opacity="0.9"></path>
<path d="M0 0L10 15L0 11.25L-10 15L0 0Z" transform="matrix(-0.938,0.347,-0.347,-0.938,1152.2149,957.1067)" fill="#aaa" fill-opacity="0.9"></path>
<path d="M589.2 414.3L486.3 370.5" transform="matrix(1.6,0,0,1.6,0,0)" fill="none" stroke="#aaa" stroke-width="0.6249999999999999" stroke-opacity="0.9" stroke-dasharray="2.4999999999999996,1.2499999999999998"></path>
<path d="M0 0L10 15L0 11.3L-10 15L0 0Z" transform="matrix(0.392,-0.92,0.92,0.392,778.1141,592.876)" fill="#aaa" fill-opacity="0.9"></path>
<path d="M589.2 414.3L682.2 434.4" transform="matrix(1.6,0,0,1.6,0,0)" fill="none" stroke="#aaa" stroke-width="0.6249999999999999" stroke-opacity="0.9" stroke-dasharray="2.4999999999999996,1.2499999999999998"></path>
<path d="M0 0L10 15L0 11.25L-10 15L0 0Z" transform="matrix(-0.211,0.978,-0.978,-0.211,1091.5505,695.0075)" fill="#aaa" fill-opacity="0.9"></path>
<path d="M589.2 414.3Q641.9 400.8 686.7 423.5" transform="matrix(1.6,0,0,1.6,0,0)" fill="none" stroke="#aaa" stroke-width="0.6249999999999999" stroke-opacity="0.9"></path>
<path d="M0 0L10 15L0 11.25L-10 15L0 0Z" transform="matrix(-0.452,0.892,-0.892,-0.452,1098.7826,677.6262)" fill="#aaa" fill-opacity="0.9"></path>
<path d="M863.9 669.6L852 568.4" transform="matrix(1.6,0,0,1.6,0,0)" fill="none" stroke="#aaa" stroke-width="0.6249999999999999" stroke-opacity="0.9"></path>
<path d="M0 0L10 15L0 11.3L-10 15L0 0Z" transform="matrix(0.993,-0.116,0.116,0.993,1363.2509,909.4896)" fill="#aaa" fill-opacity="0.9"></path>
<path d="M-1 -1l2 0l0 2l-2 0Z" transform="matrix(80,0,0,24,1098.0503,810.6625)" fill="#2BF" class="zr0-cls-0"></path>
<path d="M-1 -1l2 0l0 2l-2 0Z" transform="matrix(80,0,0,24,1170.2536,1005.8776)" fill="#FB2" class="zr0-cls-1"></path>
<path d="M-1 -1l2 0l0 2l-2 0Z" transform="matrix(80,0,0,24,942.7565,662.9383)" fill="#FB2" class="zr0-cls-2"></path>
<path d="M-1 -1l2 0l0 2l-2 0Z" transform="matrix(80,0,0,24,1352.8174,660.6764)" fill="#2BF" class="zr0-cls-3"></path>
<path d="M-1 -1l2 0l0 2l-2 0Z" transform="matrix(80,0,0,24,1382.2384,1071.4022)" fill="#FB2" class="zr0-cls-4"></path>
<path d="M-1 -1l2 0l0 2l-2 0Z" transform="matrix(80,0,0,24,961.08,1152.2382)" fill="#FB2" class="zr0-cls-5"></path>
<path d="M-1 -1l2 0l0 2l-2 0Z" transform="matrix(80,0,0,24,1178.8734,1262.8695)" fill="#FB2" class="zr0-cls-6"></path>
<path d="M-1 -1l2 0l0 2l-2 0Z" transform="matrix(80,0,0,24,730.2662,572.5148)" fill="#2BF" class="zr0-cls-7"></path>
<path d="M-1 -1l2 0l0 2l-2 0Z" transform="matrix(80,0,0,24,1630.6609,734.9177)" fill="#2BF" class="zr0-cls-8"></path>
<path d="M-1 -1l2 0l0 2l-2 0Z" transform="matrix(80,0,0,24,1525.3475,578.8639)" fill="#666" class="zr0-cls-9"></path>
<path d="M-1 -1l2 0l0 2l-2 0Z" transform="matrix(80,0,0,24,1259.1372,406.5426)" fill="#666" class="zr0-cls-10"></path>
<path d="M-1 -1l2 0l0 2l-2 0Z" transform="matrix(80,0,0,24,1472.4197,403.2419)" fill="#2BF" class="zr0-cls-11"></path>
<path d="M-1 -1l2 0l0 2l-2 0Z" transform="matrix(80,0,0,24,1142.3832,705.9633)" fill="#666" class="zr0-cls-12"></path>
<path d="M-1 -1l2 0l0 2l-2 0Z" transform="matrix(80,0,0,24,1357.1943,857.8435)" fill="#2BF" class="zr0-cls-13"></path>
<text dominant-baseline="central" text-anchor="middle" style="font-size:12px;font-family:sans-serif;" transform="translate(1098.0503 810.6625)" fill="#333">msg_channel</text>
<text dominant-baseline="central" text-anchor="middle" style="font-size:12px;font-family:sans-serif;" transform="translate(1170.2536 1005.8776)" fill="#333">facade_svr</text>
<text dominant-baseline="central" text-anchor="middle" style="font-size:12px;font-family:sans-serif;" transform="translate(942.7565 662.9383)" fill="#333">logic_facade</text>
<text dominant-baseline="central" text-anchor="middle" style="font-size:12px;font-family:sans-serif;" transform="translate(1352.8174 660.6764)" fill="#333">core_svr</text>
<text dominant-baseline="central" text-anchor="middle" style="font-size:12px;font-family:sans-serif;" transform="translate(1382.2384 1071.4022)" fill="#333">device_gw</text>
<text dominant-baseline="central" text-anchor="middle" style="font-size:12px;font-family:sans-serif;" transform="translate(961.08 1152.2382)" fill="#333">device_svr</text>
<text dominant-baseline="central" text-anchor="middle" style="font-size:12px;font-family:sans-serif;" transform="translate(1178.8734 1262.8695)" fill="#333">control_panel</text>
<text dominant-baseline="central" text-anchor="middle" style="font-size:12px;font-family:sans-serif;" transform="translate(730.2662 572.5148)" fill="#333">basement_svr</text>
<text dominant-baseline="central" text-anchor="middle" style="font-size:12px;font-family:sans-serif;" transform="translate(1630.6609 734.9177)" fill="#333">gulp_svr</text>
<text dominant-baseline="central" text-anchor="middle" style="font-size:12px;font-family:sans-serif;" transform="translate(1525.3475 578.8639)" fill="#eee" stroke="#666" stroke-width="2" paint-order="stroke" stroke-miterlimit="2">gray_scale_center</text>
<text dominant-baseline="central" text-anchor="middle" style="font-size:12px;font-family:sans-serif;" transform="translate(1259.1372 406.5426)" fill="#eee" stroke="#666" stroke-width="2" paint-order="stroke" stroke-miterlimit="2">session_svr</text>
<text dominant-baseline="central" text-anchor="middle" style="font-size:12px;font-family:sans-serif;" transform="translate(1472.4197 403.2419)" fill="#333">ext_svr</text>
<text dominant-baseline="central" text-anchor="middle" style="font-size:12px;font-family:sans-serif;" transform="translate(1142.3832 705.9633)" fill="#eee" stroke="#666" stroke-width="2" paint-order="stroke" stroke-miterlimit="2">config_center</text>
<text dominant-baseline="central" text-anchor="middle" style="font-size:12px;font-family:sans-serif;" transform="translate(1357.1943 857.8435)" fill="#333">redis</text>
<text dominant-baseline="central" text-anchor="middle" style="font-size:12px;font-family:sans-serif;" xml:space="preserve" y="-6" transform="matrix(0.966,0.258,-0.258,0.966,1467.4272,688.0661)" fill="#333" fill-opacity="0.9" stroke="rgb(255,255,255)" stroke-width="2" paint-order="stroke" stroke-opacity="0.9" stroke-miterlimit="2">Handler =&gt; MPut</text>
<text dominant-baseline="central" text-anchor="middle" style="font-size:12px;font-family:sans-serif;" xml:space="preserve" y="-6" transform="matrix(0.904,-0.428,0.428,0.904,1414.251,628.0865)" fill="#333" fill-opacity="0.9" stroke="rgb(255,255,255)" stroke-width="2" paint-order="stroke" stroke-opacity="0.9" stroke-miterlimit="2">Handler =&gt; Ratio</text>
<text dominant-baseline="central" text-anchor="middle" style="font-size:12px;font-family:sans-serif;" xml:space="preserve" y="-6" transform="matrix(0.842,-0.539,0.539,0.842,1405.8208,607.4168)" fill="#333" fill-opacity="0.9" stroke="rgb(255,255,255)" stroke-width="2" paint-order="stroke" stroke-opacity="0.9" stroke-miterlimit="2">Handler =&gt; Ratio</text>
<text dominant-baseline="central" text-anchor="middle" style="font-size:12px;font-family:sans-serif;" xml:space="preserve" y="-6" transform="matrix(0.978,-0.21,0.21,0.978,1272.3609,674.7947)" fill="#333" fill-opacity="0.9" stroke="rgb(255,255,255)" stroke-width="2" paint-order="stroke" stroke-opacity="0.9" stroke-miterlimit="2">Handler =&gt; Read</text>
<text dominant-baseline="central" text-anchor="middle" style="font-size:12px;font-family:sans-serif;" xml:space="preserve" y="-6" transform="matrix(0.948,-0.318,0.318,0.948,1275.6806,700.2262)" fill="#333" fill-opacity="0.9" stroke="rgb(255,255,255)" stroke-width="2" paint-order="stroke" stroke-opacity="0.9" stroke-miterlimit="2">Handler =&gt; MGet</text>
<text dominant-baseline="central" text-anchor="middle" style="font-size:12px;font-family:sans-serif;" xml:space="preserve" y="-6" transform="matrix(0.022,1,-1,0.022,1357.5531,733.197)" fill="#333" fill-opacity="0.9" stroke="rgb(255,255,255)" stroke-width="2" paint-order="stroke" stroke-opacity="0.9" stroke-miterlimit="2">Handler =&gt; hmset</text>
<text dominant-baseline="central" text-anchor="middle" style="font-size:12px;font-family:sans-serif;" xml:space="preserve" y="-6" transform="matrix(0.144,0.99,-0.99,0.144,1380.7034,733.9693)" fill="#333" fill-opacity="0.9" stroke="rgb(255,255,255)" stroke-width="2" paint-order="stroke" stroke-opacity="0.9" stroke-miterlimit="2">Handler =&gt; expire</text>
<text dominant-baseline="central" text-anchor="middle" style="font-size:12px;font-family:sans-serif;" xml:space="preserve" y="-6" transform="matrix(0.224,0.975,-0.975,0.224,1404.7883,737.15)" fill="#333" fill-opacity="0.9" stroke="rgb(255,255,255)" stroke-width="2" paint-order="stroke" stroke-opacity="0.9" stroke-miterlimit="2">Handler =&gt; get</text>
<text dominant-baseline="central" text-anchor="middle" style="font-size:12px;font-family:sans-serif;" xml:space="preserve" y="-6" transform="matrix(0.346,0.938,-0.938,0.346,1317.9022,556.9239)" fill="#333" fill-opacity="0.9" stroke="rgb(255,255,255)" stroke-width="2" paint-order="stroke" stroke-opacity="0.9" stroke-miterlimit="2">Handler =&gt; MGetSession</text>
<text dominant-baseline="central" text-anchor="middle" style="font-size:12px;font-family:sans-serif;" xml:space="preserve" y="-6" transform="matrix(0.421,-0.907,0.907,0.421,1398.8297,554.2219)" fill="#333" fill-opacity="0.9" stroke="rgb(255,255,255)" stroke-width="2" paint-order="stroke" stroke-opacity="0.9" stroke-miterlimit="2">Handler =&gt; GetRolesByMeetingIDAndScne</text>
<text dominant-baseline="central" text-anchor="middle" style="font-size:12px;font-family:sans-serif;" xml:space="preserve" y="-6" transform="matrix(0.819,-0.573,0.573,0.819,1085.1782,1061.5916)" fill="#333" fill-opacity="0.9" stroke="rgb(255,255,255)" stroke-width="2" paint-order="stroke" stroke-opacity="0.9" stroke-miterlimit="2">Handler =&gt; MGetDeviceAndRegion</text>
<text dominant-baseline="central" text-anchor="middle" style="font-size:12px;font-family:sans-serif;" xml:space="preserve" y="-6" transform="matrix(0.034,0.999,-0.999,0.034,1176.8151,1108.2834)" fill="#333" fill-opacity="0.9" stroke="rgb(255,255,255)" stroke-width="2" paint-order="stroke" stroke-opacity="0.9" stroke-miterlimit="2">Handler =&gt; RefreshUserState</text>
<text dominant-baseline="central" text-anchor="middle" style="font-size:12px;font-family:sans-serif;" xml:space="preserve" y="-6" transform="matrix(0.093,0.996,-0.996,0.093,1161.8358,881.5198)" fill="#333" fill-opacity="0.9" stroke="rgb(255,255,255)" stroke-width="2" paint-order="stroke" stroke-opacity="0.9" stroke-miterlimit="2">Handler =&gt; MGet</text>
<text dominant-baseline="central" text-anchor="middle" style="font-size:12px;font-family:sans-serif;" xml:space="preserve" y="-6" transform="matrix(0.784,-0.621,0.621,0.784,1241.4008,945.5516)" fill="#333" fill-opacity="0.9" stroke="rgb(255,255,255)" stroke-width="2" paint-order="stroke" stroke-opacity="0.9" stroke-miterlimit="2">Handler =&gt; get</text>
<text dominant-baseline="central" text-anchor="middle" style="font-size:12px;font-family:sans-serif;" xml:space="preserve" y="-6" transform="matrix(0.955,0.295,-0.295,0.955,1252.3284,1027.9761)" fill="#333" fill-opacity="0.9" stroke="rgb(255,255,255)" stroke-width="2" paint-order="stroke" stroke-opacity="0.9" stroke-miterlimit="2">Handler =&gt; Handler</text>
<text dominant-baseline="central" text-anchor="middle" style="font-size:12px;font-family:sans-serif;" xml:space="preserve" y="-6" transform="matrix(0.862,-0.507,0.507,0.862,1201.4429,746.167)" fill="#333" fill-opacity="0.9" stroke="rgb(255,255,255)" stroke-width="2" paint-order="stroke" stroke-opacity="0.9" stroke-miterlimit="2">Pull =&gt; Handler</text>
<text dominant-baseline="central" text-anchor="middle" style="font-size:12px;font-family:sans-serif;" xml:space="preserve" y="-6" transform="matrix(0.725,0.689,-0.689,0.725,1041.3954,752.4561)" fill="#333" fill-opacity="0.9" stroke="rgb(255,255,255)" stroke-width="2" paint-order="stroke" stroke-opacity="0.9" stroke-miterlimit="2">Pull =&gt; Handler</text>
<text dominant-baseline="central" text-anchor="middle" style="font-size:12px;font-family:sans-serif;" xml:space="preserve" y="-6" transform="matrix(0.347,0.938,-0.938,0.347,1128.0635,882.8005)" fill="#333" fill-opacity="0.9" stroke="rgb(255,255,255)" stroke-width="2" paint-order="stroke" stroke-opacity="0.9" stroke-miterlimit="2">Pull =&gt; Handler</text>
<text dominant-baseline="central" text-anchor="middle" style="font-size:12px;font-family:sans-serif;" xml:space="preserve" y="-6" transform="matrix(0.92,0.392,-0.392,0.92,861.6589,625.0317)" fill="#333" fill-opacity="0.9" stroke="rgb(255,255,255)" stroke-width="2" paint-order="stroke" stroke-opacity="0.9" stroke-miterlimit="2">Handler =&gt; QueryInfo</text>
<text dominant-baseline="central" text-anchor="middle" style="font-size:12px;font-family:sans-serif;" xml:space="preserve" y="-6" transform="matrix(0.978,0.211,-0.211,0.978,1017.8119,675.9181)" fill="#333" fill-opacity="0.9" stroke="rgb(255,255,255)" stroke-width="2" paint-order="stroke" stroke-opacity="0.9" stroke-miterlimit="2">Handler =&gt; MGet</text>
<text dominant-baseline="central" text-anchor="middle" style="font-size:12px;font-family:sans-serif;" xml:space="preserve" y="-6" transform="matrix(0.996,0.094,-0.094,0.996,1024.1856,652.6802)" fill="#333" fill-opacity="0.9" stroke="rgb(255,255,255)" stroke-width="2" paint-order="stroke" stroke-opacity="0.9" stroke-miterlimit="2">Handler =&gt; GetMeetingMeta</text>
<text dominant-baseline="central" text-anchor="middle" style="font-size:12px;font-family:sans-serif;" xml:space="preserve" y="-6" transform="matrix(0.116,0.993,-0.993,0.116,1375.8484,990.0819)" fill="#333" fill-opacity="0.9" stroke="rgb(255,255,255)" stroke-width="2" paint-order="stroke" stroke-opacity="0.9" stroke-miterlimit="2">Handler =&gt; scan</text>
<path d="M-5 -5l65.4 0l0 22l-65.4 0Z" transform="translate(5 5)" fill="rgb(0,0,0)" fill-opacity="0" stroke="#ccc" stroke-width="0"></path>
<text dominant-baseline="central" text-anchor="start" style="font-size:18px;font-family:sans-serif;font-weight:bold;" xml:space="preserve" y="6" transform="translate(5 5)" fill="#464646">Call Chain</text>
<style >&lt;![CDATA[
.zr0-cls-0 {
animation:zr0-ani-0 1s cubic-bezier(0.65,0,0.35,1) both;
}
.zr0-cls-1 {
animation:zr0-ani-1 1s cubic-bezier(0.65,0,0.35,1) both;
}
.zr0-cls-2 {
animation:zr0-ani-2 1s cubic-bezier(0.65,0,0.35,1) both;
}
.zr0-cls-3 {
animation:zr0-ani-3 1s cubic-bezier(0.65,0,0.35,1) both;
}
.zr0-cls-4 {
animation:zr0-ani-4 1s cubic-bezier(0.65,0,0.35,1) both;
}
.zr0-cls-5 {
animation:zr0-ani-5 1s cubic-bezier(0.65,0,0.35,1) both;
}
.zr0-cls-6 {
animation:zr0-ani-6 1s cubic-bezier(0.65,0,0.35,1) both;
}
.zr0-cls-7 {
animation:zr0-ani-7 1s cubic-bezier(0.65,0,0.35,1) both;
}
.zr0-cls-8 {
animation:zr0-ani-8 1s cubic-bezier(0.65,0,0.35,1) both;
}
.zr0-cls-9 {
animation:zr0-ani-9 1s cubic-bezier(0.65,0,0.35,1) both;
}
.zr0-cls-10 {
animation:zr0-ani-10 1s cubic-bezier(0.65,0,0.35,1) both;
}
.zr0-cls-11 {
animation:zr0-ani-11 1s cubic-bezier(0.65,0,0.35,1) both;
}
.zr0-cls-12 {
animation:zr0-ani-12 1s cubic-bezier(0.65,0,0.35,1) both;
}
.zr0-cls-13 {
animation:zr0-ani-13 1s cubic-bezier(0.65,0,0.35,1) both;
}
@keyframes zr0-ani-0 {
0% {
transform:scale(0,0);
opacity:0;
}
100% {
transform:scale(80,24);
opacity:1;
}
}
@keyframes zr0-ani-1 {
0% {
transform:scale(0,0);
opacity:0;
}
100% {
transform:scale(80,24);
opacity:1;
}
}
@keyframes zr0-ani-2 {
0% {
transform:scale(0,0);
opacity:0;
}
100% {
transform:scale(80,24);
opacity:1;
}
}
@keyframes zr0-ani-3 {
0% {
transform:scale(0,0);
opacity:0;
}
100% {
transform:scale(80,24);
opacity:1;
}
}
@keyframes zr0-ani-4 {
0% {
transform:scale(0,0);
opacity:0;
}
100% {
transform:scale(80,24);
opacity:1;
}
}
@keyframes zr0-ani-5 {
0% {
transform:scale(0,0);
opacity:0;
}
100% {
transform:scale(80,24);
opacity:1;
}
}
@keyframes zr0-ani-6 {
0% {
transform:scale(0,0);
opacity:0;
}
100% {
transform:scale(80,24);
opacity:1;
}
}
@keyframes zr0-ani-7 {
0% {
transform:scale(0,0);
opacity:0;
}
100% {
transform:scale(80,24);
opacity:1;
}
}
@keyframes zr0-ani-8 {
0% {
transform:scale(0,0);
opacity:0;
}
100% {
transform:scale(80,24);
opacity:1;
}
}
@keyframes zr0-ani-9 {
0% {
transform:scale(0,0);
opacity:0;
}
100% {
transform:scale(80,24);
opacity:1;
}
}
@keyframes zr0-ani-10 {
0% {
transform:scale(0,0);
opacity:0;
}
100% {
transform:scale(80,24);
opacity:1;
}
}
@keyframes zr0-ani-11 {
0% {
transform:scale(0,0);
opacity:0;
}
100% {
transform:scale(80,24);
opacity:1;
}
}
@keyframes zr0-ani-12 {
0% {
transform:scale(0,0);
opacity:0;
}
100% {
transform:scale(80,24);
opacity:1;
}
}
@keyframes zr0-ani-13 {
0% {
transform:scale(0,0);
opacity:0;
}
100% {
transform:scale(80,24);
opacity:1;
}
}
]]&gt;

</style>
</svg>