<svg width="2048" height="972" xmlns="http://www.w3.org/2000/svg" xmlns:xlink="http://www.w3.org/1999/xlink" version="1.1" baseProfile="full" viewBox="0 0 2048 972">
<rect width="2048" height="972" x="0" y="0" id="0" fill="none" fill-opacity="1"></rect>
<path d="M1024 486L1472.8 379.5" transform="matrix(0.8,0,0,0.8,409.6,97.2)" fill="none" stroke="#aaa" stroke-width="1.25" stroke-opacity="0.9"></path>
<path d="M0 0L10 15L0 11.3L-10 15L0 0Z" transform="matrix(0.231,0.973,-0.973,0.231,1587.8051,400.8064)" fill="#aaa" fill-opacity="0.9"></path>
<path d="M1024 486.5L1471 486.5" transform="matrix(0.8,0,0,0.8,409.6,97.2)" fill="none" stroke="#aaa" stroke-width="1.25" stroke-opacity="0.9" stroke-dasharray="5,2.5"></path>
<path d="M0 0L10 15L0 11.3L-10 15L0 0Z" transform="matrix(0,1,-1,0,1586.4,486)" fill="#aaa" fill-opacity="0.9"></path>
<path d="M1024 486Q1250.3 372.9 1476.5 459.7" transform="matrix(0.8,0,0,0.8,409.6,97.2)" fill="none" stroke="#aaa" stroke-width="1.25" stroke-opacity="0.9" stroke-dasharray="5,2.5"></path>
<path d="M0 0L10 15L0 11.25L-10 15L0 0Z" transform="matrix(-0.358,0.934,-0.934,-0.358,1590.8377,464.9803)" fill="#aaa" fill-opacity="0.9"></path>
<path d="M1024 486L1483 812.8" transform="matrix(0.8,0,0,0.8,409.6,97.2)" fill="none" stroke="#aaa" stroke-width="1.25" stroke-opacity="0.9" stroke-dasharray="5,2.5"></path>
<path d="M0 0L10 15L0 11.25L-10 15L0 0Z" transform="matrix(-0.58,0.815,-0.815,-0.58,1596.0384,747.4422)" fill="#aaa" fill-opacity="0.9"></path>
<path d="M1024 486Q1338.4 535.1 1503.3 794.3" transform="matrix(0.8,0,0,0.8,409.6,97.2)" fill="none" stroke="#aaa" stroke-width="1.25" stroke-opacity="0.9" stroke-dasharray="5,2.5"></path>
<path d="M0 0L10 15L0 11.25L-10 15L0 0Z" transform="matrix(-0.844,0.537,-0.537,-0.844,1612.2533,732.6518)" fill="#aaa" fill-opacity="0.9"></path>
<path d="M1024 486L1488.9 927.3" transform="matrix(0.8,0,0,0.8,409.6,97.2)" fill="none" stroke="#aaa" stroke-width="1.25" stroke-opacity="0.9" stroke-dasharray="5,2.5"></path>
<path d="M0 0L10 15L0 11.25L-10 15L0 0Z" transform="matrix(-0.688,0.725,-0.725,-0.688,1600.6853,839.0005)" fill="#aaa" fill-opacity="0.9"></path>
<path d="M1024 486Q1369.9 591.4 1511.8 911.7" transform="matrix(0.8,0,0,0.8,409.6,97.2)" fill="none" stroke="#aaa" stroke-width="1.25" stroke-opacity="0.9"></path>
<path d="M0 0L10 15L0 11.25L-10 15L0 0Z" transform="matrix(-0.914,0.405,-0.405,-0.914,1619.0234,826.545)" fill="#aaa" fill-opacity="0.9"></path>
<path d="M1024 486Q1489.4 473.9 1532 907.1" transform="matrix(0.8,0,0,0.8,409.6,97.2)" fill="none" stroke="#aaa" stroke-width="1.25" stroke-opacity="0.9"></path>
<path d="M0 0L10 15L0 11.25L-10 15L0 0Z" transform="matrix(-0.995,0.098,-0.098,-0.995,1635.2366,822.8963)" fill="#aaa" fill-opacity="0.9"></path>
<path d="M1024 486L1472.8 592.5" transform="matrix(0.8,0,0,0.8,409.6,97.2)" fill="none" stroke="#aaa" stroke-width="1.25" stroke-opacity="0.9" stroke-dasharray="5,2.5"></path>
<path d="M0 0L10 15L0 11.25L-10 15L0 0Z" transform="matrix(-0.231,0.973,-0.973,-0.231,1587.8051,571.1936)" fill="#aaa" fill-opacity="0.9"></path>
<path d="M1024 486L1477.3 701.1" transform="matrix(0.8,0,0,0.8,409.6,97.2)" fill="none" stroke="#aaa" stroke-width="1.25" stroke-opacity="0.9" stroke-dasharray="5,2.5"></path>
<path d="M0 0L10 15L0 11.25L-10 15L0 0Z" transform="matrix(-0.429,0.903,-0.903,-0.429,1591.4225,658.104)" fill="#aaa" fill-opacity="0.9"></path>
<path d="M512 0.5L1471 0.5" transform="matrix(0.8,0,0,0.8,409.6,97.2)" fill="none" stroke="#aaa" stroke-width="1.25" stroke-opacity="0.9"></path>
<path d="M0 0L10 15L0 11.3L-10 15L0 0Z" transform="matrix(0,1,-1,0,1586.4,97.2)" fill="#aaa" fill-opacity="0.9"></path>
<path d="M512 0L1471.5 113.8" transform="matrix(0.8,0,0,0.8,409.6,97.2)" fill="none" stroke="#aaa" stroke-width="1.25" stroke-opacity="0.9"></path>
<path d="M0 0L10 15L0 11.25L-10 15L0 0Z" transform="matrix(-0.118,0.993,-0.993,-0.118,1586.7622,188.2731)" fill="#aaa" fill-opacity="0.9"></path>
<path d="M512 0L1486 809" transform="matrix(0.8,0,0,0.8,409.6,97.2)" fill="none" stroke="#aaa" stroke-width="1.25" stroke-opacity="0.9"></path>
<path d="M0 0L10 15L0 11.25L-10 15L0 0Z" transform="matrix(-0.639,0.769,-0.769,-0.639,1598.3981,744.3758)" fill="#aaa" fill-opacity="0.9"></path>
<path d="M512 0L1488.9 927.3" transform="matrix(0.8,0,0,0.8,409.6,97.2)" fill="none" stroke="#aaa" stroke-width="1.25" stroke-opacity="0.9" stroke-dasharray="5,2.5"></path>
<path d="M0 0L10 15L0 11.25L-10 15L0 0Z" transform="matrix(-0.688,0.725,-0.725,-0.688,1600.6853,839.0005)" fill="#aaa" fill-opacity="0.9"></path>
<path d="M512 0L993.7 914.5" transform="matrix(0.8,0,0,0.8,409.6,97.2)" fill="none" stroke="#aaa" stroke-width="1.25" stroke-opacity="0.9"></path>
<path d="M0 0L10 15L0 11.25L-10 15L0 0Z" transform="matrix(-0.885,0.466,-0.466,-0.885,1204.5656,828.7925)" fill="#aaa" fill-opacity="0.9"></path>
<path d="M0 0L965.3 458.1" transform="matrix(0.8,0,0,0.8,409.6,97.2)" fill="none" stroke="#aaa" stroke-width="1.25" stroke-opacity="0.9" stroke-dasharray="5,2.5"></path>
<path d="M0 0L10 15L0 11.25L-10 15L0 0Z" transform="matrix(-0.429,0.903,-0.903,-0.429,1181.8225,463.704)" fill="#aaa" fill-opacity="0.9"></path>
<path d="M0 0.5L959 0.5" transform="matrix(0.8,0,0,0.8,409.6,97.2)" fill="none" stroke="#aaa" stroke-width="1.25" stroke-opacity="0.9" stroke-dasharray="5,2.5"></path>
<path d="M0 0L10 15L0 11.3L-10 15L0 0Z" transform="matrix(0,1,-1,0,1176.8,97.2)" fill="#aaa" fill-opacity="0.9"></path>
<path d="M0 0.5L447 0.5" transform="matrix(0.8,0,0,0.8,409.6,97.2)" fill="none" stroke="#aaa" stroke-width="1.25" stroke-opacity="0.9"></path>
<path d="M0 0L10 15L0 11.3L-10 15L0 0Z" transform="matrix(0,1,-1,0,767.2,97.2)" fill="#aaa" fill-opacity="0.9"></path>
<path d="M1024 0L1477.3 215.1" transform="matrix(0.8,0,0,0.8,409.6,97.2)" fill="none" stroke="#aaa" stroke-width="1.25" stroke-opacity="0.9" stroke-dasharray="5,2.5"></path>
<path d="M0 0L10 15L0 11.25L-10 15L0 0Z" transform="matrix(-0.429,0.903,-0.903,-0.429,1591.4225,269.304)" fill="#aaa" fill-opacity="0.9"></path>
<path d="M1024 0L1502.5 794.8" transform="matrix(0.8,0,0,0.8,409.6,97.2)" fill="none" stroke="#aaa" stroke-width="1.25" stroke-opacity="0.9" stroke-dasharray="5,2.5"></path>
<path d="M0 0L10 15L0 11.25L-10 15L0 0Z" transform="matrix(-0.857,0.516,-0.516,-0.857,1611.5808,733.0497)" fill="#aaa" fill-opacity="0.9"></path>
<path d="M1024 0Q1464.9 279.6 1529.4 785.8" transform="matrix(0.8,0,0,0.8,409.6,97.2)" fill="none" stroke="#aaa" stroke-width="1.25" stroke-opacity="0.9"></path>
<path d="M0 0L10 15L0 11.25L-10 15L0 0Z" transform="matrix(-0.992,0.126,-0.126,-0.992,1633.0938,725.8715)" fill="#aaa" fill-opacity="0.9"></path>
<path d="M1024 972.5L1471 972.5" transform="matrix(0.8,0,0,0.8,409.6,97.2)" fill="none" stroke="#aaa" stroke-width="1.25" stroke-opacity="0.9"></path>
<path d="M0 0L10 15L0 11.3L-10 15L0 0Z" transform="matrix(0,1,-1,0,1586.4,874.8)" fill="#aaa" fill-opacity="0.9"></path>
<path d="M-1 -1l2 0l0 2l-2 0Z" transform="matrix(80,0,0,24,409.6,97.2)" fill="#2BF" class="zr0-cls-0"></path>
<path d="M-1 -1l2 0l0 2l-2 0Z" transform="matrix(80,0,0,24,819.2,97.2)" fill="#FB2" class="zr0-cls-1"></path>
<path d="M-1 -1l2 0l0 2l-2 0Z" transform="matrix(80,0,0,24,1228.8,97.2)" fill="#FB2" class="zr0-cls-2"></path>
<path d="M-1 -1l2 0l0 2l-2 0Z" transform="matrix(80,0,0,24,1228.8,486)" fill="#2BF" class="zr0-cls-3"></path>
<path d="M-1 -1l2 0l0 2l-2 0Z" transform="matrix(80,0,0,24,1228.8,874.8)" fill="#FB2" class="zr0-cls-4"></path>
<path d="M-1 -1l2 0l0 2l-2 0Z" transform="matrix(80,0,0,24,1638.4,97.2)" fill="#FB2" class="zr0-cls-5"></path>
<path d="M-1 -1l2 0l0 2l-2 0Z" transform="matrix(80,0,0,24,1638.4,194.4)" fill="#FB2" class="zr0-cls-6"></path>
<path d="M-1 -1l2 0l0 2l-2 0Z" transform="matrix(80,0,0,24,1638.4,291.6)" fill="#2BF" class="zr0-cls-7"></path>
<path d="M-1 -1l2 0l0 2l-2 0Z" transform="matrix(80,0,0,24,1638.4,388.8)" fill="#2BF" class="zr0-cls-8"></path>
<path d="M-1 -1l2 0l0 2l-2 0Z" transform="matrix(80,0,0,24,1638.4,486)" fill="#666" class="zr0-cls-9"></path>
<path d="M-1 -1l2 0l0 2l-2 0Z" transform="matrix(80,0,0,24,1638.4,583.2)" fill="#666" class="zr0-cls-10"></path>
<path d="M-1 -1l2 0l0 2l-2 0Z" transform="matrix(80,0,0,24,1638.4,680.4)" fill="#2BF" class="zr0-cls-11"></path>
<path d="M-1 -1l2 0l0 2l-2 0Z" transform="matrix(80,0,0,24,1638.4,777.6)" fill="#666" class="zr0-cls-12"></path>
<path d="M-1 -1l2 0l0 2l-2 0Z" transform="matrix(80,0,0,24,1638.4,874.8)" fill="#2BF" class="zr0-cls-13"></path>
<text dominant-baseline="central" text-anchor="middle" style="font-size:12px;font-family:sans-serif;" transform="translate(409.6 97.2)" fill="#333">msg_channel</text>
<text dominant-baseline="central" text-anchor="middle" style="font-size:12px;font-family:sans-serif;" transform="translate(819.2 97.2)" fill="#333">facade_svr</text>
<text dominant-baseline="central" text-anchor="middle" style="font-size:12px;font-family:sans-serif;" transform="translate(1228.8 97.2)" fill="#333">logic_facade</text>
<text dominant-baseline="central" text-anchor="middle" style="font-size:12px;font-family:sans-serif;" transform="translate(1228.8 486)" fill="#333">core_svr</text>
<text dominant-baseline="central" text-anchor="middle" style="font-size:12px;font-family:sans-serif;" transform="translate(1228.8 874.8)" fill="#333">device_gw</text>
<text dominant-baseline="central" text-anchor="middle" style="font-size:12px;font-family:sans-serif;" transform="translate(1638.4 97.2)" fill="#333">device_svr</text>
<text dominant-baseline="central" text-anchor="middle" style="font-size:12px;font-family:sans-serif;" transform="translate(1638.4 194.4)" fill="#333">control_panel</text>
<text dominant-baseline="central" text-anchor="middle" style="font-size:12px;font-family:sans-serif;" transform="translate(1638.4 291.6)" fill="#333">basement_svr</text>
<text dominant-baseline="central" text-anchor="middle" style="font-size:12px;font-family:sans-serif;" transform="translate(1638.4 388.8)" fill="#333">gulp_svr</text>
<text dominant-baseline="central" text-anchor="middle" style="font-size:12px;font-family:sans-serif;" transform="translate(1638.4 486)" fill="#eee" stroke="#666" stroke-width="2" paint-order="stroke" stroke-miterlimit="2">gray_scale_center</text>
<text dominant-baseline="central" text-anchor="middle" style="font-size:12px;font-family:sans-serif;" transform="translate(1638.4 583.2)" fill="#eee" stroke="#666" stroke-width="2" paint-order="stroke" stroke-miterlimit="2">session_svr</text>
<text dominant-baseline="central" text-anchor="middle" style="font-size:12px;font-family:sans-serif;" transform="translate(1638.4 680.4)" fill="#333">ext_svr</text>
<text dominant-baseline="central" text-anchor="middle" style="font-size:12px;font-family:sans-serif;" transform="translate(1638.4 777.6)" fill="#eee" stroke="#666" stroke-width="2" paint-order="stroke" stroke-miterlimit="2">config_center</text>
<text dominant-baseline="central" text-anchor="middle" style="font-size:12px;font-family:sans-serif;" transform="translate(1638.4 874.8)" fill="#333">redis</text>
<text dominant-baseline="central" text-anchor="middle" style="font-size:12px;font-family:sans-serif;" xml:space="preserve" y="-6" transform="matrix(0.973,-0.231,0.231,0.973,1406.8595,437.3221)" fill="#333" fill-opacity="0.9" stroke="rgb(255,255,255)" stroke-width="2" paint-order="stroke" stroke-opacity="0.9" stroke-miterlimit="2">Handler =&gt; MPut</text>
<text dominant-baseline="central" text-anchor="middle" style="font-size:12px;font-family:sans-serif;" xml:space="preserve" y="-6" transform="translate(1407.6 479.75)" fill="#333" fill-opacity="0.9" stroke="rgb(255,255,255)" stroke-width="2" paint-order="stroke" stroke-opacity="0.9" stroke-miterlimit="2">Handler =&gt; Ratio</text>
<text dominant-baseline="central" text-anchor="middle" style="font-size:12px;font-family:sans-serif;" xml:space="preserve" y="-6" transform="matrix(0.998,-0.058,0.058,0.998,1409.4566,429.2509)" fill="#333" fill-opacity="0.9" stroke="rgb(255,255,255)" stroke-width="2" paint-order="stroke" stroke-opacity="0.9" stroke-miterlimit="2">Handler =&gt; Ratio</text>
<text dominant-baseline="central" text-anchor="middle" style="font-size:12px;font-family:sans-serif;" xml:space="preserve" y="-6" transform="matrix(0.815,0.58,-0.58,0.815,1416.0439,611.6295)" fill="#333" fill-opacity="0.9" stroke="rgb(255,255,255)" stroke-width="2" paint-order="stroke" stroke-opacity="0.9" stroke-miterlimit="2">Handler =&gt; Read</text>
<text dominant-baseline="central" text-anchor="middle" style="font-size:12px;font-family:sans-serif;" xml:space="preserve" y="-6" transform="matrix(0.841,0.541,-0.541,0.841,1453.8134,562.0621)" fill="#333" fill-opacity="0.9" stroke="rgb(255,255,255)" stroke-width="2" paint-order="stroke" stroke-opacity="0.9" stroke-miterlimit="2">Handler =&gt; MGet</text>
<text dominant-baseline="central" text-anchor="middle" style="font-size:12px;font-family:sans-serif;" xml:space="preserve" y="-6" transform="matrix(0.725,0.688,-0.688,0.725,1419.0455,657.9672)" fill="#333" fill-opacity="0.9" stroke="rgb(255,255,255)" stroke-width="2" paint-order="stroke" stroke-opacity="0.9" stroke-miterlimit="2">Handler =&gt; hmset</text>
<text dominant-baseline="central" text-anchor="middle" style="font-size:12px;font-family:sans-serif;" xml:space="preserve" y="-6" transform="matrix(0.753,0.658,-0.658,0.753,1468.8252,608.5766)" fill="#333" fill-opacity="0.9" stroke="rgb(255,255,255)" stroke-width="2" paint-order="stroke" stroke-opacity="0.9" stroke-miterlimit="2">Handler =&gt; expire</text>
<text dominant-baseline="central" text-anchor="middle" style="font-size:12px;font-family:sans-serif;" xml:space="preserve" y="-6" transform="matrix(0.77,0.638,-0.638,0.77,1520.5575,560.5624)" fill="#333" fill-opacity="0.9" stroke="rgb(255,255,255)" stroke-width="2" paint-order="stroke" stroke-opacity="0.9" stroke-miterlimit="2">Handler =&gt; get</text>
<text dominant-baseline="central" text-anchor="middle" style="font-size:12px;font-family:sans-serif;" xml:space="preserve" y="-6" transform="matrix(0.973,0.231,-0.231,0.973,1409.7456,522.5157)" fill="#333" fill-opacity="0.9" stroke="rgb(255,255,255)" stroke-width="2" paint-order="stroke" stroke-opacity="0.9" stroke-miterlimit="2">Handler =&gt; MGetSession</text>
<text dominant-baseline="central" text-anchor="middle" style="font-size:12px;font-family:sans-serif;" xml:space="preserve" y="-6" transform="matrix(0.903,0.429,-0.429,0.903,1412.791,566.4057)" fill="#333" fill-opacity="0.9" stroke="rgb(255,255,255)" stroke-width="2" paint-order="stroke" stroke-opacity="0.9" stroke-miterlimit="2">Handler =&gt; GetRolesByMeetingIDAndScne</text>
<text dominant-baseline="central" text-anchor="middle" style="font-size:12px;font-family:sans-serif;" xml:space="preserve" y="-6" transform="translate(1202.8 90.95)" fill="#333" fill-opacity="0.9" stroke="rgb(255,255,255)" stroke-width="2" paint-order="stroke" stroke-opacity="0.9" stroke-miterlimit="2">Handler =&gt; MGetDeviceAndRegion</text>
<text dominant-baseline="central" text-anchor="middle" style="font-size:12px;font-family:sans-serif;" xml:space="preserve" y="-6" transform="matrix(0.993,0.118,-0.118,0.993,1203.7175,136.5301)" fill="#333" fill-opacity="0.9" stroke="rgb(255,255,255)" stroke-width="2" paint-order="stroke" stroke-opacity="0.9" stroke-miterlimit="2">Handler =&gt; RefreshUserState</text>
<text dominant-baseline="central" text-anchor="middle" style="font-size:12px;font-family:sans-serif;" xml:space="preserve" y="-6" transform="matrix(0.769,0.639,-0.639,0.769,1212.7924,415.98)" fill="#333" fill-opacity="0.9" stroke="rgb(255,255,255)" stroke-width="2" paint-order="stroke" stroke-opacity="0.9" stroke-miterlimit="2">Handler =&gt; MGet</text>
<text dominant-baseline="central" text-anchor="middle" style="font-size:12px;font-family:sans-serif;" xml:space="preserve" y="-6" transform="matrix(0.725,0.688,-0.688,0.725,1214.2455,463.5672)" fill="#333" fill-opacity="0.9" stroke="rgb(255,255,255)" stroke-width="2" paint-order="stroke" stroke-opacity="0.9" stroke-miterlimit="2">Handler =&gt; get</text>
<text dominant-baseline="central" text-anchor="middle" style="font-size:12px;font-family:sans-serif;" xml:space="preserve" y="-6" transform="matrix(0.466,0.885,-0.885,0.466,1017.4125,460.0834)" fill="#333" fill-opacity="0.9" stroke="rgb(255,255,255)" stroke-width="2" paint-order="stroke" stroke-opacity="0.9" stroke-miterlimit="2">Handler =&gt; Handler</text>
<text dominant-baseline="central" text-anchor="middle" style="font-size:12px;font-family:sans-serif;" xml:space="preserve" y="-6" transform="matrix(0.903,0.429,-0.429,0.903,798.391,274.8057)" fill="#333" fill-opacity="0.9" stroke="rgb(255,255,255)" stroke-width="2" paint-order="stroke" stroke-opacity="0.9" stroke-miterlimit="2">Pull =&gt; Handler</text>
<text dominant-baseline="central" text-anchor="middle" style="font-size:12px;font-family:sans-serif;" xml:space="preserve" y="-6" transform="translate(793.2 90.95)" fill="#333" fill-opacity="0.9" stroke="rgb(255,255,255)" stroke-width="2" paint-order="stroke" stroke-opacity="0.9" stroke-miterlimit="2">Pull =&gt; Handler</text>
<text dominant-baseline="central" text-anchor="middle" style="font-size:12px;font-family:sans-serif;" xml:space="preserve" y="-6" transform="translate(588.4 90.95)" fill="#333" fill-opacity="0.9" stroke="rgb(255,255,255)" stroke-width="2" paint-order="stroke" stroke-opacity="0.9" stroke-miterlimit="2">Pull =&gt; Handler</text>
<text dominant-baseline="central" text-anchor="middle" style="font-size:12px;font-family:sans-serif;" xml:space="preserve" y="-6" transform="matrix(0.903,0.429,-0.429,0.903,1412.791,177.6057)" fill="#333" fill-opacity="0.9" stroke="rgb(255,255,255)" stroke-width="2" paint-order="stroke" stroke-opacity="0.9" stroke-miterlimit="2">Handler =&gt; QueryInfo</text>
<text dominant-baseline="central" text-anchor="middle" style="font-size:12px;font-family:sans-serif;" xml:space="preserve" y="-6" transform="matrix(0.516,0.857,-0.857,0.516,1425.545,411.9014)" fill="#333" fill-opacity="0.9" stroke="rgb(255,255,255)" stroke-width="2" paint-order="stroke" stroke-opacity="0.9" stroke-miterlimit="2">Handler =&gt; MGet</text>
<text dominant-baseline="central" text-anchor="middle" style="font-size:12px;font-family:sans-serif;" xml:space="preserve" y="-6" transform="matrix(0.541,0.841,-0.841,0.541,1511.474,362.8425)" fill="#333" fill-opacity="0.9" stroke="rgb(255,255,255)" stroke-width="2" paint-order="stroke" stroke-opacity="0.9" stroke-miterlimit="2">Handler =&gt; GetMeetingMeta</text>
<text dominant-baseline="central" text-anchor="middle" style="font-size:12px;font-family:sans-serif;" xml:space="preserve" y="-6" transform="translate(1407.6 868.55)" fill="#333" fill-opacity="0.9" stroke="rgb(255,255,255)" stroke-width="2" paint-order="stroke" stroke-opacity="0.9" stroke-miterlimit="2">Handler =&gt; scan</text>
<path d="M-5 -5l65.4 0l0 22l-65.4 0Z" transform="translate(5 5)" fill="rgb(0,0,0)" fill-opacity="0" stroke="#ccc" stroke-width="0"></path>
<text dominant-baseline="central" text-anchor="start" style="font-size:18px;font-family:sans-serif;font-weight:bold;" xml:space="preserve" y="6" transform="translate(5 5)" fill="#464646">Call Chain</text>
<style >&lt;![CDATA[
.zr0-cls-0 {
animation:zr0-ani-0 1s cubic-bezier(0.65,0,0.35,1) both;
}
.zr0-cls-1 {
animation:zr0-ani-1 1s cubic-bezier(0.65,0,0.35,1) both;
}
.zr0-cls-2 {
animation:zr0-ani-2 1s cubic-bezier(0.65,0,0.35,1) both;
}
.zr0-cls-3 {
animation:zr0-ani-3 1s cubic-bezier(0.65,0,0.35,1) both;
}
.zr0-cls-4 {
animation:zr0-ani-4 1s cubic-bezier(0.65,0,0.35,1) both;
}
.zr0-cls-5 {
animation:zr0-ani-5 1s cubic-bezier(0.65,0,0.35,1) both;
}
.zr0-cls-6 {
animation:zr0-ani-6 1s cubic-bezier(0.65,0,0.35,1) both;
}
.zr0-cls-7 {
animation:zr0-ani-7 1s cubic-bezier(0.65,0,0.35,1) both;
}
.zr0-cls-8 {
animation:zr0-ani-8 1s cubic-bezier(0.65,0,0.35,1) both;
}
.zr0-cls-9 {
animation:zr0-ani-9 1s cubic-bezier(0.65,0,0.35,1) both;
}
.zr0-cls-10 {
animation:zr0-ani-10 1s cubic-bezier(0.65,0,0.35,1) both;
}
.zr0-cls-11 {
animation:zr0-ani-11 1s cubic-bezier(0.65,0,0.35,1) both;
}
.zr0-cls-12 {
animation:zr0-ani-12 1s cubic-bezier(0.65,0,0.35,1) both;
}
.zr0-cls-13 {
animation:zr0-ani-13 1s cubic-bezier(0.65,0,0.35,1) both;
}
@keyframes zr0-ani-0 {
0% {
transform:scale(0,0);
opacity:0;
}
100% {
transform:scale(80,24);
opacity:1;
}
}
@keyframes zr0-ani-1 {
0% {
transform:scale(0,0);
opacity:0;
}
100% {
transform:scale(80,24);
opacity:1;
}
}
@keyframes zr0-ani-2 {
0% {
transform:scale(0,0);
opacity:0;
}
100% {
transform:scale(80,24);
opacity:1;
}
}
@keyframes zr0-ani-3 {
0% {
transform:scale(0,0);
opacity:0;
}
100% {
transform:scale(80,24);
opacity:1;
}
}
@keyframes zr0-ani-4 {
0% {
transform:scale(0,0);
opacity:0;
}
100% {
transform:scale(80,24);
opacity:1;
}
}
@keyframes zr0-ani-5 {
0% {
transform:scale(0,0);
opacity:0;
}
100% {
transform:scale(80,24);
opacity:1;
}
}
@keyframes zr0-ani-6 {
0% {
transform:scale(0,0);
opacity:0;
}
100% {
transform:scale(80,24);
opacity:1;
}
}
@keyframes zr0-ani-7 {
0% {
transform:scale(0,0);
opacity:0;
}
100% {
transform:scale(80,24);
opacity:1;
}
}
@keyframes zr0-ani-8 {
0% {
transform:scale(0,0);
opacity:0;
}
100% {
transform:scale(80,24);
opacity:1;
}
}
@keyframes zr0-ani-9 {
0% {
transform:scale(0,0);
opacity:0;
}
100% {
transform:scale(80,24);
opacity:1;
}
}
@keyframes zr0-ani-10 {
0% {
transform:scale(0,0);
opacity:0;
}
100% {
transform:scale(80,24);
opacity:1;
}
}
@keyframes zr0-ani-11 {
0% {
transform:scale(0,0);
opacity:0;
}
100% {
transform:scale(80,24);
opacity:1;
}
}
@keyframes zr0-ani-12 {
0% {
transform:scale(0,0);
opacity:0;
}
100% {
transform:scale(80,24);
opacity:1;
}
}
@keyframes zr0-ani-13 {
0% {
transform:scale(0,0);
opacity:0;
}
100% {
transform:scale(80,24);
opacity:1;
}
}
]]&gt;

</style>
</svg>